<?xml version="1.0" encoding="utf-8"?>
<!-- Generator: Adobe Illustrator 21.1.0, SVG Export Plug-In . SVG Version: 6.00 Build 0)  -->
<svg version="1.1" id="Layer_1" xmlns="http://www.w3.org/2000/svg" xmlns:xlink="http://www.w3.org/1999/xlink" x="0px" y="0px"
	 viewBox="0 0 25 25" style="enable-background:new 0 0 25 25;" xml:space="preserve">
<style type="text/css">
	.st0{fill:#FFFFFF;}
</style>
<g>
	<g>
		<g>
			<path class="st0" d="M22.9,0H2.1C0.9,0,0,0.9,0,2.1v20.8C0,24.1,0.9,25,2.1,25h9.6v-8.3H8.3v-5h3.3V9.6c0-2.8,2.2-5.2,5-5.4
				l4.6,0v5h-4.2c-0.2,0-0.4,0.2-0.4,0.4v2.1h4.2v5h-4.2V25h6.3c1.1,0,2.1-0.9,2.1-2.1V2.1C25,0.9,24.1,0,22.9,0z"/>
			<path class="st0" d="M20,12.5h-4.2V9.6c0-0.7,0.6-1.3,1.3-1.3h3.3V5h-3.8c-2.3,0.2-4.2,2.2-4.2,4.6v2.9H9.2v3.3h3.3V25h3.3v-9.2
				H20V12.5z"/>
		</g>
	</g>
</g>
</svg>
